<!-- Generated by SVGMaker - https://svgmaker.io -->
<!-- Prompt: replace text from "Dear Crisis" to "Metacrisis Salon" written on the letter in the same font. -->
<!-- Quality: high -->
<!-- Type: edit -->
<!-- Created: 2026-04-14T03:33:25.732Z -->
<svg version="1.1" xmlns="http://www.w3.org/2000/svg" style="display: block;" viewBox="0 0 2048 2048" width="2048" height="2048" preserveAspectRatio="none"><path transform="translate(0,0)" fill="rgb(1,1,1)" d="M 1375.44 574.231 C 1379.22 574.295 1382.91 575.43 1386.07 577.502 C 1392.24 581.599 1395.38 587.703 1396.57 594.846 C 1402.63 630.993 1380.29 679.017 1360.3 707.448 C 1388.29 733.647 1350.39 780.725 1333.66 803.082 C 1348.31 819.91 1341.91 832.486 1332.09 849.893 C 1384.78 840.314 1437.03 828.189 1490.06 820.557 C 1505.88 818.282 1520.78 816.366 1536.79 816.244 C 1547.01 829.83 1559.96 850.851 1569.85 865.439 C 1595.55 902.798 1620.73 940.508 1645.4 978.558 C 1664.63 1008.22 1800.5 1225.8 1795.92 1247.25 C 1771.43 1272.89 1208.57 1491.65 1150.26 1504.19 C 1138.81 1483.07 1129.09 1457.12 1119.65 1434.97 C 1096.85 1381.47 1077.38 1325.86 1053.71 1272.81 C 1019.73 1304.82 989.363 1320.15 947.438 1338.98 C 972.48 1371.12 965.474 1391.47 937.643 1413.99 C 933.785 1417.11 926.747 1433.34 917.335 1425.62 C 909.831 1419.47 909.516 1402.83 908.981 1394.2 C 906.068 1397.39 899.629 1404.91 895.569 1405.76 C 859.798 1413.25 892.33 1368.67 889.55 1357.05 C 885.525 1354.1 842.774 1357.52 835.246 1357.87 C 845.477 1380.28 858.216 1406.37 837.237 1427.59 C 834.432 1430.42 829.233 1431.39 826.503 1433.57 C 820.456 1438.51 810.799 1449.1 802.169 1448.29 C 786.077 1446.76 792.778 1420.41 794.426 1412.13 C 767.605 1430.65 745.254 1426.94 765.633 1392.18 C 768.884 1386.63 775.809 1377.67 775.414 1371.17 C 763.778 1351.79 717.715 1342.88 696.362 1336.03 C 695.702 1366.32 700.514 1434.46 660.419 1439.02 C 647.274 1440.51 639.469 1434.89 629.861 1427.17 C 626.615 1429.79 622.836 1432.41 619.43 1434.88 C 597.119 1445 581.819 1443.79 564.036 1426.74 C 535.442 1440.47 507.701 1441.06 495.026 1406.35 C 459.071 1416.65 420.637 1413.29 422.361 1365.87 C 396.002 1366.39 360.823 1366.08 352.814 1331.09 C 349.417 1312.65 363.566 1299.86 380.138 1294.84 C 450.388 1273.55 526.881 1254.77 589.181 1215.07 C 592.064 1213.24 609.682 1181.52 612.567 1176.56 C 622.937 1158.49 634.082 1140.88 645.969 1123.77 C 621.813 1126.93 593.985 1125.58 572.589 1112.76 C 552.636 1100.8 551.73 1085.78 563.367 1067.46 C 538.696 1063.01 506.716 1052.84 491.795 1031.02 C 485.706 1022.2 483.524 1011.25 485.766 1000.77 C 488.03 990.558 495.446 985.993 503.545 980.972 C 468.692 961.582 419.408 942.373 408.745 898.17 C 403.469 876.3 418.898 869.876 437.131 866.345 C 409.767 845.61 368.683 807.58 365.204 769.828 C 363.033 746.265 384.932 749.671 401.116 750.609 C 379.177 726.411 334.833 681.824 336.589 647.413 C 336.886 641.594 339.045 635.577 343.702 631.828 C 347.841 628.496 353.258 627.629 358.413 628.398 C 383.432 632.127 456.315 684.695 481.798 699.953 C 507.473 715.154 533.706 729.394 560.44 742.644 C 591.326 757.348 623.073 770.17 655.507 781.039 C 753.639 814.954 764.377 812.873 825.802 900.073 C 842.651 884.272 856.902 869.438 868.282 849.082 C 888.7 812.56 894.989 770.163 912.853 732.68 C 929.332 698.102 957.261 669.452 990.869 651.07 C 1032.38 628.693 1081.1 623.79 1126.23 637.447 C 1171.54 650.944 1197.12 677.779 1219.04 717.88 C 1225.61 713.533 1233.08 707.145 1239.21 702.018 C 1268.52 677.772 1297.8 654.407 1324.11 626.81 C 1339.21 610.974 1355.51 581.599 1375.44 574.231 z"></path><path transform="translate(0,0)" fill="rgb(196,196,198)" d="M 592.103 828.743 C 576.328 809.563 542.8 787.182 540.719 758.304 C 540.616 756.876 541.559 756.243 542.596 754.969 C 549.072 753.215 578.097 767.258 585.113 770.802 C 645.785 801.442 727.978 806.497 776.221 857.129 C 798.499 880.509 813.944 909.728 834.807 934.289 C 848.709 951.28 865.055 956.832 870.696 980.928 C 875.005 999.332 876.802 1017.29 880.111 1035.84 C 893.875 1098.73 918.554 1146.06 973.666 1180.75 C 990.391 1188.99 1002.32 1194.25 1021.24 1194.15 C 1029.66 1214.62 1038.13 1237.61 1047.51 1257.31 C 1035.18 1268.67 1020.65 1280.46 1006.58 1289.63 C 968.576 1312.4 935.619 1327.19 891.384 1335.01 C 874.304 1338.02 857.213 1339.76 840.245 1342.74 C 857.275 1327.36 863.656 1311.89 869.117 1289.98 C 856.018 1307.03 841.048 1329.18 822.591 1340.17 C 796.389 1355.19 763.466 1352.4 742.058 1330.34 C 730.845 1318.78 727.861 1306.84 719.982 1293.44 L 718.671 1293.65 C 714.056 1300.15 722.964 1322.37 725.748 1329.01 C 701.611 1321.97 678.057 1313.06 655.3 1302.36 C 645.374 1297.74 622.674 1284.63 613.334 1282.6 C 606.63 1286.23 575.633 1298.11 568.994 1297.48 C 562.278 1296.2 542.241 1306.71 535.263 1309.83 C 521.187 1316.2 506.908 1322.12 492.45 1327.57 C 466.467 1318.67 461.536 1315.34 458.115 1287.76 C 502.509 1269.47 567.052 1251.87 603.019 1216.02 C 609.884 1209.18 629.451 1175.84 635.728 1165.48 C 643.711 1152.9 651.049 1140.74 661.198 1129.74 C 689.688 1158.93 725.855 1143 758.473 1130.19 C 767.657 1125.78 770.884 1123.64 778.207 1116.26 C 768.254 1114.76 726.705 1111.95 725.864 1095.45 C 725.689 1092.01 732.902 1087.22 731.284 1083.86 C 719.131 1079.35 705.572 1082.31 692.806 1078.14 C 654.162 1065.5 681.951 1048 681.72 1043.45 C 675.097 1040.42 666.219 1039.31 658.975 1037.56 C 641.641 1033.39 610.802 1018.3 618.706 996.117 C 621.77 987.517 640.86 989.974 648.087 989.861 C 628.359 977.711 606.843 969.627 590.841 951.968 C 576.141 935.745 568.836 920.584 586.327 903.144 C 597.554 908.084 606.697 912.314 618.629 915.591 C 603.785 902.439 537.189 854.036 555.201 820.552 C 559.093 813.316 584.943 825.46 592.103 828.743 z"></path><path transform="translate(0,0)" fill="rgb(160,163,170)" d="M 973.666 1180.75 C 990.391 1188.99 1002.32 1194.25 1021.24 1194.15 C 1029.66 1214.62 1038.13 1237.61 1047.51 1257.31 C 1035.18 1268.67 1020.65 1280.46 1006.58 1289.63 C 1001.04 1258.9 983.494 1212.56 973.666 1180.75 z"></path><path transform="translate(0,0)" fill="rgb(160,163,170)" d="M 635.728 1165.48 C 643.711 1152.9 651.049 1140.74 661.198 1129.74 C 689.688 1158.93 725.855 1143 758.473 1130.19 L 760.617 1132.71 C 758.925 1138.04 740.897 1148.06 735.523 1151.05 C 710.396 1165.01 663.58 1173.59 635.728 1165.48 z"></path><path transform="translate(0,0)" fill="rgb(160,163,170)" d="M 612.893 832.445 C 693.888 858.937 763.928 900.658 804.107 979.778 C 810.026 991.435 829.57 1035.78 826.78 1045.1 C 823.961 1044.93 825.269 1045.07 822.346 1042.22 C 809.465 1033.94 781.446 994.742 769.868 980.779 C 756.821 965.044 744.779 949.976 730.149 934.837 C 715.596 919.877 700.433 905.524 684.698 891.813 C 674.643 883.096 636.269 853.334 631.164 845.347 C 625.244 840.422 618.911 837.189 612.893 832.445 z"></path><path transform="translate(0,0)" fill="rgb(1,1,1)" d="M 612.893 832.445 C 693.888 858.937 763.928 900.658 804.107 979.778 C 810.026 991.435 829.57 1035.78 826.78 1045.1 C 823.961 1044.93 825.269 1045.07 822.346 1042.22 C 778.311 941.843 728.849 892.598 631.164 845.347 C 625.244 840.422 618.911 837.189 612.893 832.445 z"></path><path transform="translate(0,0)" fill="rgb(253,248,225)" d="M 1262.95 883.956 C 1346.21 863.338 1446.6 841.267 1530.94 826.284 C 1523.19 849.547 1514.89 872.623 1506.05 895.494 C 1489.71 937.49 1472.96 979.325 1455.81 1020.99 C 1446.18 1045.29 1435.93 1069.34 1425.06 1093.11 C 1415.71 1114.02 1402.96 1148.77 1381.01 1158.84 C 1368.04 1164.79 1344.18 1161.13 1330.71 1156.83 C 1283.7 1141.8 1238.98 1118.54 1194.35 1097.58 L 1043.61 1027.64 C 1006.87 1010.57 967.36 991.464 930.165 976.154 C 960.535 964.014 1005.24 951.049 1036.69 942.144 C 1075.96 930.777 1115.45 920.133 1155.12 910.216 C 1161.69 908.579 1186.59 901.898 1191.2 902.163 L 1221.8 917.173 C 1227.59 919.672 1234.29 922.365 1239.93 925.012 C 1244.96 927.466 1253.07 931.949 1258.54 929.912 C 1274.56 923.943 1266.49 895.588 1262.95 883.956 z"></path><path transform="translate(0,0)" fill="rgb(160,163,170)" d="M 1191.2 902.163 L 1221.8 917.173 C 1220.53 919.269 1220.3 919.913 1218.55 921.588 L 1217.21 921.777 C 1207.52 917.746 1193.48 913.062 1191.2 902.163 z"></path><path transform="translate(0,0)" fill="rgb(196,196,198)" d="M 1221.8 917.173 C 1227.59 919.672 1234.29 922.365 1239.93 925.012 C 1232.71 928.763 1224.67 924.32 1217.21 921.777 L 1218.55 921.588 C 1220.3 919.913 1220.53 919.269 1221.8 917.173 z"></path><path transform="translate(0,0)" fill="rgb(1,1,1)" d="M 1146 969.707 C 1147.93 969.886 1150.62 969.978 1152.23 971.135 C 1157.2 974.686 1178.93 1029.63 1178.88 1036.63 C 1178.86 1039.31 1178.43 1040.47 1176.61 1042.37 C 1165.6 1042.73 1154.71 1006.93 1150.54 996.582 C 1149.14 1004.69 1149.59 1019.76 1141.02 1022.48 C 1134.13 1021.39 1126.78 1013.71 1120.49 1009.35 L 1119.46 1009.82 L 1120.47 1013.24 C 1123.5 1021.87 1136.23 1048.93 1127.22 1055.31 C 1117.5 1052.93 1098.91 996.104 1101.96 986.785 C 1109.7 979.447 1130.06 1002.2 1136.46 1008.02 C 1137.78 997.566 1139.87 977.251 1146 969.707 z"></path><path transform="translate(0,0)" fill="rgb(1,1,1)" d="M 1271.5 963.3 L 1273.51 962.982 C 1280.57 965.976 1281.3 980.891 1285.85 987.567 C 1289.31 992.632 1296.64 997.681 1294.57 1004.05 L 1292.74 1004.84 C 1285.73 1003.61 1284.08 1002.15 1279.17 997.046 L 1275.8 1005.07 C 1253.11 1027.02 1239.69 979.976 1257.76 968.759 C 1262.46 965.837 1266.25 966.558 1271.5 963.3 z"></path><path transform="translate(0,0)" fill="rgb(253,248,225)" d="M 1265.45 974.395 L 1267.88 975.32 C 1268.81 977.127 1269.29 978.028 1269.71 980.06 C 1271.28 987.47 1269.69 995.199 1265.31 1001.38 C 1257.62 993.612 1257.59 982.11 1265.45 974.395 z"></path><path transform="translate(0,0)" fill="rgb(1,1,1)" d="M 1189.12 984.121 C 1211.87 982.269 1215.48 1003.93 1197.31 1013.19 C 1194.95 1014.4 1194.74 1013.85 1192.44 1015.87 C 1199.31 1027.32 1208.47 1012.28 1216.44 1012.05 C 1219.47 1014.27 1218.5 1013.44 1219.78 1017.86 C 1200.65 1055.4 1154.14 1004.65 1189.12 984.121 z"></path><path transform="translate(0,0)" fill="rgb(253,248,225)" d="M 1192.98 993.454 C 1196.84 993.636 1197.76 993.95 1198.72 997.395 C 1197.51 1001.37 1196.43 1002.06 1193.52 1005.24 L 1190.04 1005.59 C 1186.27 1001.63 1189.92 996.657 1192.98 993.454 z"></path><path transform="translate(0,0)" fill="rgb(1,1,1)" d="M 1216.49 950.45 C 1224.74 953.922 1226.15 963.614 1228.54 971.53 C 1233.88 969.481 1238.92 967.344 1244.02 971.12 C 1246.2 978.168 1238.2 980.15 1233.02 982.292 C 1237.11 994.116 1246.22 1008.84 1242.89 1020.52 C 1241.45 1020.7 1239.38 1021.03 1238.05 1020.46 C 1230.96 1017.45 1224.41 993.948 1221.67 986.107 C 1220.71 986.442 1219.74 986.767 1218.77 987.081 C 1214.03 988.612 1213.14 988.99 1209.08 986.896 C 1206.78 980.154 1213.62 977.653 1218.52 975.048 C 1216.04 966.971 1211.55 957.891 1216.49 950.45 z"></path><path transform="translate(0,0)" fill="rgb(1,1,1)" d="M 1442.84 909.114 C 1449 908.823 1455.92 908.27 1458.78 914.632 C 1456.99 920.801 1450.63 916.584 1445.19 920.121 L 1445.66 921.645 C 1454.16 929.521 1484.44 931.975 1468.72 952.436 C 1464.74 957.62 1459.72 958.374 1453.57 958.967 C 1447.02 957.367 1439.4 954.109 1439.53 946.185 C 1444.6 942.764 1451.65 946.66 1459.14 946.583 L 1460.6 944.281 C 1457.18 934.644 1414.45 926.559 1442.84 909.114 z"></path><path transform="translate(0,0)" fill="rgb(1,1,1)" d="M 1392.25 924.153 C 1396.91 924.57 1403.43 925.667 1405.29 930.445 C 1401.71 934.016 1392.93 932.793 1391.2 937.202 C 1396.8 943.988 1420.24 945.563 1418.41 958.481 C 1416.58 971.472 1408.04 974.409 1397.12 974.16 C 1390.67 971.61 1386.13 969.643 1385.48 961.913 L 1386.8 960.436 C 1391.48 959.564 1397.7 961.446 1402.6 962.493 C 1405.32 961.596 1404.22 962.363 1406.01 960.102 C 1402.64 951.254 1383.33 949.075 1379.92 939.286 C 1377.07 931.098 1385.78 925.844 1392.25 924.153 z"></path><path transform="translate(0,0)" fill="rgb(1,1,1)" d="M 1304.13 952.052 C 1309.75 952.25 1315.47 952.654 1317.42 958.902 C 1314.03 962.804 1306.98 960.465 1302.43 966.791 C 1301.71 970.683 1302.21 979.24 1304.29 982.456 C 1310.6 992.225 1321.89 978.876 1328.88 980.434 C 1330.95 983.916 1330.26 983.194 1330.32 987.862 C 1307.57 1021.83 1268.77 965.239 1304.13 952.052 z"></path><path transform="translate(0,0)" fill="rgb(1,1,1)" d="M 1343.09 940.106 C 1348.51 939.514 1351.14 938.171 1354.08 943.055 C 1354.01 951.927 1346.31 948.859 1343.3 954.434 C 1338.35 963.623 1353.33 977.713 1348.49 987.479 C 1344.81 989.577 1346.84 988.93 1341.97 988.633 C 1336.19 982.027 1325.75 958.186 1324.6 948.579 C 1324.31 946.146 1325.23 945.973 1326.76 944.531 C 1330.22 944.466 1329.69 945.038 1333.23 947.73 L 1335.66 946.954 C 1338.61 943.208 1339.14 942.946 1343.09 940.106 z"></path><path transform="translate(0,0)" fill="rgb(1,1,1)" d="M 1415.56 920.255 C 1416.49 920.35 1419.14 920.612 1419.73 921.158 C 1427.75 928.692 1439.18 953.962 1435.11 963.838 C 1434.11 963.84 1431.17 963.855 1430.5 963.366 C 1421.3 956.598 1412.68 929.2 1415.56 920.255 z"></path><path transform="translate(0,0)" fill="rgb(1,1,1)" d="M 1361.84 935.241 C 1372.88 938.291 1384.67 969.572 1380.67 979.514 C 1379.78 979.479 1376.63 979.347 1376.1 978.916 C 1366.83 971.405 1358.32 944.763 1361.84 935.241 z"></path><path transform="translate(0,0)" fill="rgb(1,1,1)" d="M 1358.39 919.597 C 1361.4 919 1364.33 920.915 1365 923.911 C 1365.67 926.907 1363.83 929.888 1360.85 930.628 C 1358.86 931.122 1356.75 930.498 1355.35 928.999 C 1353.95 927.499 1353.48 925.359 1354.11 923.406 C 1354.74 921.454 1356.37 919.996 1358.39 919.597 z"></path><path transform="translate(0,0)" fill="rgb(1,1,1)" d="M 1410.63 905.59 C 1412.41 904.424 1414.7 904.383 1416.52 905.485 C 1418.34 906.587 1419.36 908.636 1419.15 910.753 C 1418.94 912.869 1417.53 914.675 1415.53 915.396 C 1412.9 916.345 1409.98 915.174 1408.72 912.671 C 1407.47 910.168 1408.3 907.125 1410.63 905.59 z"></path><path transform="translate(0,0)" fill="rgb(253,248,225)" d="M 1436.72 1106.6 C 1442.61 1108.91 1448.53 1111.38 1454.4 1113.76 C 1528.34 1144.41 1602.46 1174.61 1676.77 1204.36 L 1742.18 1230.27 C 1754.09 1235 1769.41 1241.56 1781.3 1245.29 L 1341.31 1419.73 L 1222.73 1465.91 C 1206.23 1472.31 1181.17 1483.04 1165.09 1488.13 C 1189.54 1434.21 1213.06 1380.78 1234.99 1325.73 C 1254.5 1276.74 1275.56 1228.54 1293.29 1178.82 C 1294.34 1176.55 1297.8 1165.06 1298.79 1162.04 C 1379.71 1192.34 1401.16 1183.68 1436.72 1106.6 z"></path><path transform="translate(0,0)" fill="rgb(196,196,198)" d="M 1436.72 1106.6 C 1442.61 1108.91 1448.53 1111.38 1454.4 1113.76 C 1413.08 1202.43 1386.59 1218.38 1293.29 1178.82 C 1294.34 1176.55 1297.8 1165.06 1298.79 1162.04 C 1379.71 1192.34 1401.16 1183.68 1436.72 1106.6 z"></path><path transform="translate(0,0)" fill="rgb(1,1,1)" d="M 1301.47 1226.11 C 1314 1224.71 1329.34 1226.68 1332.42 1241.25 C 1327.9 1251.52 1308.92 1236.98 1301.14 1244.15 C 1287.26 1256.52 1303.96 1264.74 1315.51 1267.38 C 1335.79 1272.02 1363.17 1283.63 1361.39 1309.04 C 1360.79 1317.59 1356.68 1325.5 1350.03 1330.9 C 1339.62 1339.49 1327.05 1340.66 1314.25 1339.59 C 1307 1337.28 1299.57 1334.6 1294.61 1328.58 C 1289.85 1322.81 1286.15 1315.67 1293.57 1310.48 C 1300.58 1308.97 1308.39 1315.63 1314.65 1319.33 C 1322.98 1324.25 1337.29 1322.48 1341 1312.41 C 1348.74 1290.65 1313.39 1285.99 1299.48 1281.31 C 1267.68 1270.62 1271.16 1236.87 1301.47 1226.11 z"></path><path transform="translate(0,0)" fill="rgb(1,1,1)" d="M 1395.56 1236.95 C 1409.63 1234.44 1412.62 1268.33 1421.9 1276.94 C 1425.79 1280.55 1433.13 1287.67 1434.31 1292 C 1433.67 1294.61 1434.03 1295.14 1431.74 1296.79 C 1422.36 1303.52 1414.59 1294.27 1409.66 1288.22 C 1407.9 1294.38 1407.06 1296.64 1404.42 1302.49 C 1372.28 1340.93 1342.57 1255.08 1382.54 1241.94 C 1387.74 1240.23 1390.8 1240.13 1395.56 1236.95 z"></path><path transform="translate(0,0)" fill="rgb(253,248,225)" d="M 1388.71 1253.34 L 1391.06 1254.55 C 1398.95 1264 1396.33 1287.11 1388.45 1296.7 C 1376.78 1285.41 1376.22 1264.63 1388.71 1253.34 z"></path><path transform="translate(0,0)" fill="rgb(1,1,1)" d="M 1477.75 1206.08 C 1515.62 1204.18 1533.69 1259.58 1494.6 1274.75 C 1454.43 1279.91 1439.05 1216.04 1477.75 1206.08 z"></path><path transform="translate(0,0)" fill="rgb(253,248,225)" d="M 1477.93 1221.99 C 1497.59 1221.38 1505.91 1244.92 1492.87 1259 C 1475.69 1261.17 1465.06 1234.45 1477.93 1221.99 z"></path><path transform="translate(0,0)" fill="rgb(1,1,1)" d="M 1544.05 1182.09 C 1563.19 1180.56 1568.73 1191.85 1576.31 1207.18 C 1579.57 1213.78 1590.81 1240.26 1579.07 1242.27 C 1561.59 1245.28 1564.06 1205.18 1549.3 1197.98 C 1539.3 1197.77 1539.67 1208.79 1539.04 1216.39 C 1540.57 1224.2 1542.31 1228.49 1544.98 1235.93 C 1547.6 1243.27 1554.51 1255.2 1543.64 1258.71 C 1534.36 1258.33 1528.79 1244.63 1525.93 1237.09 C 1521.6 1225.67 1512.8 1209.47 1512.16 1197.58 C 1513.37 1194.47 1513.5 1194.65 1515.97 1192.3 C 1523.47 1191.11 1522.38 1197.22 1527.77 1198.76 C 1532.32 1189.23 1534.36 1186.66 1544.05 1182.09 z"></path><path transform="translate(0,0)" fill="rgb(1,1,1)" d="M 1412.73 1188.42 C 1414.57 1188.48 1417.33 1188.4 1418.95 1189.35 C 1425.97 1193.46 1455.01 1268.33 1457.62 1279.18 C 1458.76 1283.94 1458.35 1286.51 1455.85 1290.71 C 1453.19 1291.04 1450.45 1291.51 1447.94 1290.19 C 1436.41 1284.16 1413.36 1215.51 1410.74 1201.62 C 1409.7 1196.08 1409.47 1193.17 1412.73 1188.42 z"></path><path transform="translate(0,0)" fill="rgb(127,131,141)" d="M 905.301 803.451 C 923.205 745.386 939.507 696.466 996.935 666.039 C 1035.81 645.47 1081.28 641.259 1123.27 654.338 C 1193.61 676.697 1218.37 737.285 1223.98 805.615 C 1217.26 808.358 1215.48 809.421 1210.03 814.239 C 1178.4 795.365 1159.15 816.558 1144.42 843.686 C 1140.77 844.413 1138.1 844.456 1135.52 847.007 C 1131.27 858.352 1152.9 868.51 1161.27 872.668 C 1156.95 878.885 1153.87 884.151 1154.59 892.157 C 1100.74 907.304 1039.98 921.401 987.636 940.553 C 966.389 947.921 926.279 960.552 909.935 974.847 L 919.739 990.092 C 914.358 991.716 908.899 992.94 904.542 996.517 C 891.61 987.286 891.344 973.297 884.99 963.05 C 879.271 953.828 870.644 946.474 863.867 935.349 L 863.818 915.554 C 854.546 913.772 846.276 912.675 838.935 906.402 C 864.57 889.272 883.596 857.931 895.164 830.15 C 898.693 821.676 901.112 812.689 904.897 804.325 L 905.301 803.451 z"></path><path transform="translate(0,0)" fill="rgb(92,145,126)" d="M 838.935 906.402 C 864.57 889.272 883.596 857.931 895.164 830.15 C 898.693 821.676 901.112 812.689 904.897 804.325 L 905.301 803.451 C 909.868 810.666 912.192 828.453 914.543 837.486 C 926.043 881.663 944.162 907.646 982.908 929.873 C 984.843 933.648 986.457 936.42 987.636 940.553 C 966.389 947.921 926.279 960.552 909.935 974.847 L 919.739 990.092 C 914.358 991.716 908.899 992.94 904.542 996.517 C 891.61 987.286 891.344 973.297 884.99 963.05 C 879.271 953.828 870.644 946.474 863.867 935.349 L 863.818 915.554 C 854.546 913.772 846.276 912.675 838.935 906.402 z"></path><path transform="translate(0,0)" fill="rgb(239,153,147)" d="M 992.455 838.367 C 1031.16 836.072 1076.15 870.843 1017.62 883.437 C 1002.89 884.586 989.3 882.15 976.825 873.89 C 965.56 866.431 957.316 851.682 973.084 843.666 C 979.765 840.27 985.204 839.391 992.455 838.367 z"></path><path transform="translate(0,0)" fill="rgb(1,1,1)" d="M 1057.31 773.25 C 1061.36 772.904 1066.38 772.933 1070.34 773.783 C 1079.97 775.773 1088.38 781.598 1093.63 789.917 C 1097.72 796.346 1105.38 821.374 1097.57 826.257 C 1090.23 823.742 1083.73 804.4 1071.33 796.57 C 1044.05 787.104 1043.44 814.454 1028.32 824.414 C 1023.35 818.57 1026.82 802.828 1029.97 796.503 C 1036.06 784.261 1044.71 777.727 1057.31 773.25 z"></path><path transform="translate(0,0)" fill="rgb(253,248,225)" d="M 935.947 991.151 C 941.676 994.137 947.376 997.176 953.047 1000.27 L 1190.84 1114.36 C 1219.81 1128.01 1248.71 1141.63 1278.43 1153.54 C 1283.1 1155.41 1287.79 1157.19 1292.19 1159.64 L 1286.39 1174.57 C 1274.81 1202.06 1263.81 1230.96 1252.5 1258.73 C 1232.61 1307.46 1212.35 1356.04 1191.73 1404.48 C 1180.15 1431.78 1167.78 1462.29 1155.08 1488.98 C 1150.2 1474.22 1145 1459.5 1139.51 1444.9 C 1085.79 1302.11 1032.83 1157.69 956.801 1024.9 C 950.307 1013.56 943.532 1001.72 935.947 991.151 z"></path><path transform="translate(0,0)" fill="rgb(196,196,198)" d="M 953.047 1000.27 L 1190.84 1114.36 C 1219.81 1128.01 1248.71 1141.63 1278.43 1153.54 C 1283.1 1155.41 1287.79 1157.19 1292.19 1159.64 L 1286.39 1174.57 C 1285.37 1174.68 1283.03 1175.09 1282.06 1174.69 C 1201.28 1141.7 1122.74 1099.56 1045.89 1058.42 C 1028.41 1049.06 960.76 1013.08 953.047 1000.27 z"></path><path transform="translate(0,0)" fill="rgb(253,248,225)" d="M 1530.44 866.609 C 1533.44 857.508 1536.87 848.03 1538.68 838.659 C 1557.39 870.357 1577.96 902.397 1597.54 933.673 C 1644.1 1007.08 1689.75 1081.07 1734.48 1155.61 C 1749.6 1181.36 1767.43 1210.14 1781.11 1236.38 L 1457.23 1106.33 C 1453.73 1105.4 1443.82 1101.41 1439.94 1099.97 C 1445.3 1085.68 1453.46 1068.65 1459.58 1054.35 C 1469.96 1029.92 1479.98 1005.34 1489.62 980.614 C 1498.9 957.418 1507.58 933.985 1515.64 910.338 C 1520.56 896.05 1525.13 880.5 1530.44 866.609 z"></path><path transform="translate(0,0)" fill="rgb(196,196,198)" d="M 1530.44 866.609 L 1533.18 865.667 C 1536.59 875.739 1498.28 993.418 1492.85 1010.11 C 1484.03 1037.24 1468.99 1079.77 1457.23 1106.33 C 1453.73 1105.4 1443.82 1101.41 1439.94 1099.97 C 1445.3 1085.68 1453.46 1068.65 1459.58 1054.35 C 1469.96 1029.92 1479.98 1005.34 1489.62 980.614 C 1498.9 957.418 1507.58 933.985 1515.64 910.338 C 1520.56 896.05 1525.13 880.5 1530.44 866.609 z"></path><path transform="translate(0,0)" fill="rgb(127,131,141)" d="M 353.816 637.677 C 371.95 640.637 410.949 670.723 427.556 682.132 C 441.337 691.521 455.269 700.689 469.344 709.631 C 488.071 721.535 514.777 736.925 534.655 746.821 C 524.72 774.396 540.407 789.683 557.966 808.998 C 516.979 829.75 559.383 878.039 580.301 896.72 C 541.713 928.724 586.611 968.403 616.213 984.399 C 605.876 996.458 602.731 1006.38 612.848 1020.7 C 625.67 1038.84 644.544 1045.44 665.577 1049.59 C 664.394 1052.46 663.237 1056.36 663.006 1059.46 C 662.576 1065.56 664.565 1071.58 668.544 1076.22 C 679.046 1088.33 701.177 1090.47 715.997 1091.59 C 718.1 1114.69 729.923 1117.15 749.987 1122.03 C 737.379 1124.9 679.915 1138.12 674.766 1122.57 C 675.899 1116.39 689.105 1106.7 694.897 1101.06 C 684.589 1102.49 674.08 1105.87 663.58 1107.59 C 639.472 1111.54 607.831 1112.55 584.996 1102.52 C 579.629 1100.33 570.407 1092.96 569.246 1087.06 C 564.666 1063.81 614.974 1066.14 620.347 1056.87 C 616.056 1053.73 597.556 1055.49 590.893 1055.16 C 570.142 1054.12 551.941 1050.6 532.676 1043.01 C 519.674 1037.45 493.713 1022.48 499.23 1004.76 C 502.224 995.145 512.41 990.513 520.757 986.25 C 530.519 988.251 568.941 997.248 575.367 990.159 C 572.587 987.778 552.359 981.669 547.425 980.472 C 515.455 972.722 417.147 926.221 421.394 889.931 C 421.69 887.249 423.089 884.812 425.256 883.203 C 442.842 869.891 483.528 891.862 500.445 898.214 C 512.1 902.59 521.178 904.338 533.596 905.642 C 484.886 874.922 430.947 855.782 396.062 805.797 C 390.554 797.905 372.946 771.968 378.09 762.617 C 382.767 760.944 391.014 763.508 395.702 764.175 C 429.726 769.009 443.368 787.192 471.748 803.267 C 487.477 812.176 497.6 816.833 514.845 822.352 C 502.917 812.558 487.618 802.151 474.985 792.801 C 456.196 779.156 438.289 764.336 421.369 748.432 C 400.126 728.439 351.641 678.671 348.684 647.71 C 348.262 643.298 350.916 640.569 353.816 637.677 z"></path><path transform="translate(0,0)" fill="rgb(160,163,170)" d="M 568.994 1297.48 C 575.633 1298.11 606.63 1286.23 613.334 1282.6 C 624.956 1300.69 666.134 1322.42 686.169 1332.46 C 685 1348.72 683.816 1366.52 680.623 1382.49 C 639.224 1406.73 649.023 1380.69 652.826 1352.89 C 643.708 1371.16 636.157 1402.33 605.53 1390.27 C 603.14 1389.33 603.233 1388.49 602.429 1386.36 C 603.941 1379.5 616.454 1356.02 620.666 1345.07 C 601.702 1368.91 577.468 1407.83 545.844 1370.59 C 557.953 1358.79 572.701 1345.75 581.306 1331.37 C 558.274 1347.99 523.284 1381.32 499.158 1345.41 C 498.054 1343.74 497.007 1342.02 496.017 1340.28 C 515.613 1329.84 552.837 1310.72 568.994 1297.48 z"></path><path transform="translate(0,0)" fill="rgb(97,101,111)" d="M 965.848 1158.69 C 923.378 1125.52 901.281 1075.73 889.061 1024.37 C 885.254 1008.37 881.658 981.795 874.482 967.951 C 863.027 945.853 844.991 936.877 833.026 911.526 C 834.448 908.682 835.878 908.472 838.935 906.402 C 846.276 912.675 854.546 913.772 863.818 915.554 L 863.867 935.349 C 870.644 946.474 879.271 953.828 884.99 963.05 C 891.344 973.297 891.61 987.286 904.542 996.517 C 908.899 992.94 914.358 991.716 919.739 990.092 C 946.668 1034.03 970.093 1083.27 992.482 1129.63 C 1000.64 1146.53 1007.71 1165.83 1015.97 1182.39 C 1003.24 1179.07 974.41 1168.79 965.848 1158.69 z"></path><path transform="translate(0,0)" fill="rgb(127,131,141)" d="M 965.848 1158.69 C 923.378 1125.52 901.281 1075.73 889.061 1024.37 C 885.254 1008.37 881.658 981.795 874.482 967.951 C 863.027 945.853 844.991 936.877 833.026 911.526 C 834.448 908.682 835.878 908.472 838.935 906.402 C 846.276 912.675 854.546 913.772 863.818 915.554 L 863.867 935.349 C 870.644 946.474 879.271 953.828 884.99 963.05 C 891.344 973.297 891.61 987.286 904.542 996.517 C 908.461 1002.71 927.226 1054.09 931.256 1064.74 L 953.204 1122.41 C 957.18 1132.69 963.183 1146.9 966.383 1157.12 L 965.848 1158.69 z"></path><path transform="translate(0,0)" fill="rgb(160,163,170)" d="M 1237.83 720.523 C 1247.66 712.671 1276.54 688.226 1286.4 684.409 C 1298.41 686.078 1298 705.162 1295.7 713.932 C 1289.85 736.271 1276.63 756.96 1262.34 774.806 C 1263.26 776.334 1263.76 777.48 1264.97 778.707 C 1301.6 755.524 1284.83 797.077 1273.44 812.955 C 1270.74 817.213 1266.07 821.704 1265.23 826.408 C 1267.55 830.222 1269.92 829.152 1275.36 832.64 C 1278.92 839.206 1274.96 845.613 1271.88 851.993 C 1263.23 869.923 1257.48 869.906 1247.26 855.137 C 1255.55 833.443 1255.32 822.259 1236.16 807.955 C 1235.74 773.346 1235.93 763.983 1224.92 730.344 L 1237.83 720.523 z"></path><path transform="translate(0,0)" fill="rgb(196,196,198)" d="M 1237.83 720.523 C 1247.66 712.671 1276.54 688.226 1286.4 684.409 C 1298.41 686.078 1298 705.162 1295.7 713.932 C 1289.85 736.271 1276.63 756.96 1262.34 774.806 C 1252.63 752.016 1252.03 742.958 1237.83 720.523 z"></path><path transform="translate(0,0)" fill="rgb(196,196,198)" d="M 1264.97 778.707 C 1301.6 755.524 1284.83 797.077 1273.44 812.955 C 1271.39 800.068 1268.71 791.107 1264.97 778.707 z"></path><path transform="translate(0,0)" fill="rgb(127,131,141)" d="M 1292.9 677.312 C 1312.09 660.279 1328.65 644.807 1344.45 624.547 C 1352.68 613.994 1365.62 593.414 1376.03 586.612 L 1378.15 587.098 C 1401.15 611.937 1352.83 700.299 1332.24 719.476 C 1324.31 726.858 1311.63 745.542 1306.15 754.761 C 1297.24 758.619 1294.51 759.58 1284.5 760.683 C 1299.52 738.198 1320.52 698.772 1292.9 677.312 z"></path><path transform="translate(0,0)" fill="rgb(97,101,111)" d="M 448.323 1290.17 C 455.819 1295.02 435.712 1316.08 479.664 1333.54 C 450.697 1345.46 426.384 1353.88 394.785 1351 C 366.685 1345.66 349.24 1320.19 383.626 1307.88 C 404.567 1300.38 426.737 1295.67 448.323 1290.17 z"></path><path transform="translate(0,0)" fill="rgb(97,101,111)" d="M 486.802 1344.97 C 489.951 1346.89 495.047 1359.21 498.625 1362.61 C 505.757 1369.4 519.111 1369.37 528.239 1369.34 C 510.124 1382.1 496.474 1390.01 475.399 1396.33 C 447.439 1400.09 435.449 1392.6 434.922 1363.66 C 454.669 1357.6 467.786 1353.11 486.802 1344.97 z"></path><path transform="translate(0,0)" fill="rgb(97,101,111)" d="M 1306.15 754.761 C 1324.09 750.339 1343 722.15 1355.29 723.42 C 1368.26 735.194 1326.81 789.067 1317.29 800.857 L 1314.69 804.076 C 1311.08 802.618 1297.07 802.409 1292.35 802.218 L 1293.24 799.975 C 1307.05 765.5 1287.29 769.349 1284.5 760.683 C 1294.51 759.58 1297.24 758.619 1306.15 754.761 z"></path><path transform="translate(0,0)" fill="rgb(73,78,88)" d="M 1292.35 802.218 L 1293.24 799.975 C 1298.75 801.327 1311.1 800.868 1317.29 800.857 L 1314.69 804.076 C 1311.08 802.618 1297.07 802.409 1292.35 802.218 z"></path><path transform="translate(0,0)" fill="rgb(239,153,147)" d="M 809.656 1358.35 C 811.716 1357.88 813.126 1358.24 815.022 1359.19 C 842.149 1372.69 841.485 1401.16 828.564 1424.21 C 829.279 1413.75 830.31 1396.16 824.159 1387.54 L 822.84 1387.77 C 819.651 1394.9 819.016 1444.74 801.37 1436.78 C 802.083 1427.27 808.393 1395.09 802.171 1387.52 L 800.635 1387.51 C 794.932 1394.65 780.61 1411.24 771.833 1413.74 L 770.18 1412.76 C 767.251 1392.33 800.608 1383.81 782.93 1362.88 C 791.243 1361.04 801.141 1359.7 809.656 1358.35 z"></path><path transform="translate(0,0)" fill="rgb(253,248,225)" d="M 1223.26 818.492 C 1236.31 819.446 1246.17 834.623 1235.27 845.016 C 1232.57 847.585 1226.55 846.242 1222.95 845.71 C 1221.36 848.611 1219.64 852.514 1218.18 855.572 C 1189.87 850.386 1184.39 865.977 1163.87 861.384 C 1158.58 858.504 1154.96 857.487 1153.22 852.029 C 1154.4 847.44 1166.7 833.887 1170.98 829.967 C 1195.79 807.272 1197.73 828.806 1214.49 829.38 C 1216.81 827.97 1220.65 821.604 1223.26 818.492 z"></path><path transform="translate(0,0)" fill="rgb(127,131,141)" d="M 1224 853.199 C 1243.99 860.725 1252.49 898.675 1254.37 917.533 L 1218.31 899.579 C 1205.58 893.559 1193.37 888.498 1180.46 883.003 C 1176.75 881.426 1174.19 879.97 1172.93 876.334 C 1177.63 870.202 1209.31 865.934 1217.7 861.293 C 1222.97 858.375 1221.55 859.739 1224 853.199 z"></path><path transform="translate(0,0)" fill="rgb(239,153,147)" d="M 900.655 1352.53 C 911.798 1348.92 924.685 1345.75 936.258 1342.19 C 943.249 1348.94 945.533 1351.39 949.022 1360.72 C 952.871 1375.64 949.569 1386.28 944.269 1400.32 C 944.531 1388.66 944.442 1384.52 940.964 1373.5 L 939.887 1370.07 C 938.483 1368.12 936.079 1363.82 934.735 1361.59 C 934.804 1363.08 934.858 1364.57 934.896 1366.06 C 935.124 1374.2 936.936 1415.96 922.709 1414.69 C 917.919 1407.56 926.24 1385.04 918.514 1375.21 C 908.939 1371.76 901.533 1395.25 891.719 1397.97 L 890.479 1396.43 C 889.665 1387.86 899.799 1370.42 904.213 1361.31 C 903.205 1358.53 901.797 1355.31 900.655 1352.53 z"></path><path transform="translate(0,0)" fill="rgb(221,153,152)" d="M 949.022 1360.72 C 952.871 1375.64 949.569 1386.28 944.269 1400.32 C 944.531 1388.66 944.442 1384.52 940.964 1373.5 L 939.887 1370.07 L 941.419 1370.41 C 943.746 1371.95 943.995 1373.75 945.022 1376.47 L 945.463 1377.67 L 946.677 1376.38 L 947.847 1378.52 C 948.306 1377.93 948.829 1363.24 949.022 1360.72 z"></path><path transform="translate(0,0)" fill="rgb(97,101,111)" d="M 1277.67 823.244 C 1282.6 816.786 1287.78 809.018 1292.35 802.218 C 1297.07 802.409 1311.08 802.618 1314.69 804.076 C 1311.28 808.235 1306.68 813.159 1306.24 818.552 C 1310.57 820.712 1317.04 814.802 1325.02 815.211 C 1334.5 820.964 1316.94 847.887 1313.08 854.686 C 1299.45 856.92 1288.97 859.738 1275.57 863.292 C 1286.31 848.137 1295.02 837.199 1277.67 823.244 z"></path><path transform="translate(0,0)" fill="rgb(97,101,111)" d="M 538.687 1377.05 C 553.364 1395.42 559.709 1397.15 582.345 1392.36 C 569.663 1404.63 563.156 1411.54 547.207 1418.91 C 524.833 1425.99 514.242 1422.04 505.107 1400.53 C 516.992 1393.46 527.653 1385.32 538.687 1377.05 z"></path><path transform="translate(0,0)" fill="rgb(97,101,111)" d="M 595.059 1393.86 C 608.177 1405.18 616.71 1404.27 632.054 1398.11 C 626.208 1411.64 623.473 1417.85 610.866 1425.61 C 594.817 1431.77 587.209 1431.27 573.712 1419.92 L 595.059 1393.86 z"></path><path transform="translate(0,0)" fill="rgb(97,101,111)" d="M 677.817 1394.92 L 679.113 1395.77 C 679.961 1400.01 677.138 1410.16 674.958 1413.94 C 666.523 1428.57 656.232 1431.34 642.19 1423.2 C 634.358 1414.37 640.283 1406.9 644.577 1397.1 C 646.197 1397.74 647.83 1398.35 649.475 1398.92 C 661.504 1403.04 667.359 1400.16 677.817 1394.92 z"></path></svg>